<?xml version="1.0" standalone="no"?>
<!DOCTYPE svg PUBLIC "-//W3C//DTD SVG 20010904//EN"
 "http://www.w3.org/TR/2001/REC-SVG-20010904/DTD/svg10.dtd">
<svg version="1.0" xmlns="http://www.w3.org/2000/svg"
 width="512.000000pt" height="512.000000pt" viewBox="0 0 512.000000 512.000000"
 preserveAspectRatio="xMidYMid meet">
<metadata>
Created by potrace 1.14, written by Peter Selinger 2001-2017
</metadata>
<g transform="translate(0.000000,512.000000) scale(0.100000,-0.100000)"
fill="#000000" stroke="none">
<path d="M2287 4864 c-1 -1 -42 -5 -91 -8 -227 -18 -496 -98 -694 -208 -65
-36 -215 -133 -234 -151 -7 -7 -35 -30 -63 -52 -176 -141 -361 -379 -465 -598
-78 -165 -119 -295 -150 -477 -5 -30 -12 -66 -14 -80 -2 -14 -5 -35 -5 -47 -1
-17 -10 -25 -39 -32 -54 -15 -121 -76 -148 -135 -26 -57 -31 -126 -12 -188 16
-56 83 -127 143 -153 l50 -23 -2 -248 c-1 -137 -2 -252 -2 -255 -1 -4 -18 -9
-39 -13 -55 -8 -115 -56 -142 -110 l-22 -46 0 -698 c0 -478 3 -710 11 -737 13
-47 53 -95 101 -121 28 -15 62 -19 166 -22 l132 -4 4 -54 c5 -62 28 -99 79
-129 29 -17 53 -19 203 -20 94 -1 186 2 205 6 48 10 83 38 105 84 19 37 19 71
19 990 0 1018 2 971 -51 1028 -37 39 -75 45 -279 44 -166 -2 -184 -4 -209 -23
-46 -34 -68 -72 -74 -127 l-5 -52 -50 0 -49 0 -1 257 0 256 35 11 c20 6 55 27
78 47 140 119 115 331 -49 419 -43 23 -56 35 -54 50 2 11 6 45 10 75 8 60 8
62 24 135 34 148 162 453 220 522 l19 23 73 -43 c70 -40 77 -42 154 -42 86 0
117 11 170 60 273 255 516 383 848 450 108 21 189 28 347 28 235 1 362 -14
526 -62 263 -76 463 -189 668 -379 139 -130 239 -139 402 -37 l41 25 15 -22
c76 -117 168 -332 207 -483 20 -79 24 -100 36 -180 4 -22 8 -52 11 -66 3 -23
-1 -29 -36 -43 -58 -23 -114 -79 -140 -138 -27 -64 -24 -151 8 -215 26 -50 94
-110 142 -124 l35 -11 -1 -251 c-1 -139 -2 -255 -3 -259 0 -4 -23 -7 -51 -6
l-50 0 0 44 c0 56 -20 95 -67 131 l-36 28 -181 2 c-203 1 -241 -5 -278 -44
-53 -58 -51 -9 -51 -1023 0 -997 0 -996 46 -1037 47 -43 65 -47 257 -48 167 0
188 1 224 20 53 27 77 62 84 126 l7 54 130 5 c142 6 191 22 233 79 44 60 44
68 44 802 l0 698 -22 46 c-27 55 -87 103 -142 111 -21 4 -38 9 -39 13 -1 8 -1
483 0 498 1 6 17 17 37 23 89 30 164 139 164 240 0 104 -80 216 -172 241 -21
5 -38 15 -38 22 0 14 -27 181 -34 217 -12 55 -16 68 -41 153 -137 463 -501
882 -950 1092 -168 79 -410 145 -590 161 -63 6 -642 13 -648 8z m713 -117 c13
-4 42 -9 64 -13 22 -3 43 -7 46 -9 3 -2 23 -6 44 -9 72 -12 250 -77 361 -132
135 -68 243 -140 354 -236 82 -70 241 -241 241 -258 0 -5 -26 -25 -57 -44 -44
-28 -68 -36 -103 -36 -54 1 -73 11 -137 70 -162 153 -361 280 -558 357 -82 32
-237 78 -290 87 -16 2 -46 7 -65 10 -159 27 -515 28 -670 2 -234 -39 -432
-111 -625 -227 -62 -38 -161 -107 -191 -134 -170 -153 -185 -164 -240 -165
-28 0 -134 47 -158 70 -19 19 147 201 284 310 239 190 547 322 832 356 29 3
55 8 57 10 7 7 785 -2 811 -9z m1609 -1668 c89 -84 51 -224 -68 -255 -75 -18
-137 11 -171 80 -73 151 118 291 239 175z m-3932 29 c39 -17 72 -56 83 -100
40 -143 -134 -250 -246 -152 -76 68 -62 199 26 245 40 22 97 24 137 7z m590
-823 c11 -16 13 -186 13 -956 0 -839 -2 -939 -16 -953 -23 -24 -355 -24 -378
0 -14 14 -16 114 -16 953 0 734 3 941 13 953 16 21 33 23 216 22 137 -1 156
-3 168 -19z m2969 0 c12 -16 14 -183 14 -956 0 -839 -2 -939 -16 -953 -23 -24
-355 -24 -378 0 -14 14 -16 114 -16 953 0 965 0 961 38 972 7 2 87 4 179 3
149 -1 167 -3 179 -19z m-3468 -952 l-3 -768 -100 -1 c-126 -1 -160 8 -186 49
-19 31 -19 52 -17 728 3 681 3 697 23 719 31 34 51 39 173 39 l113 1 -3 -767z
m3859 734 l28 -27 3 -695 c3 -767 5 -742 -59 -769 -18 -8 -72 -12 -137 -12
l-107 1 -2 768 -3 769 125 -4 c121 -3 125 -4 152 -31z"/>
<path d="M2843 2398 c-13 -6 -24 -16 -24 -22 -7 -60 -3 -2068 4 -2088 8 -26
22 -33 57 -28 39 4 39 -3 39 1072 0 1021 0 1039 -19 1058 -23 23 -26 23 -57 8z"/>
<path d="M2531 1983 c-21 -14 -21 -17 -21 -652 0 -482 3 -640 12 -649 15 -15
61 -15 76 0 9 9 12 167 12 649 0 571 -2 638 -16 650 -23 19 -39 19 -63 2z"/>
<path d="M1922 1889 c-12 -5 -23 -12 -23 -16 -1 -4 -2 -244 -4 -533 -2 -564
-2 -570 48 -570 54 1 52 -24 53 547 1 290 -2 538 -7 549 -9 25 -36 34 -67 23z"/>
<path d="M3165 1892 c-11 -2 -24 -8 -30 -13 -6 -7 -10 -202 -11 -542 -2 -575
-2 -567 51 -567 52 0 52 -6 50 555 -1 286 -3 528 -4 537 -1 21 -29 36 -56 30z"/>
<path d="M2217 1672 c-14 -15 -16 -60 -16 -339 -1 -310 0 -324 19 -343 30 -30
57 -25 77 15 5 12 9 150 8 336 -1 338 -2 349 -50 349 -12 0 -29 -8 -38 -18z"/>
<path d="M3446 1674 c-14 -13 -16 -59 -16 -344 l0 -330 24 -15 c18 -12 30 -13
50 -6 30 12 27 -31 28 395 0 267 -2 291 -18 303 -24 17 -49 16 -68 -3z"/>
<path d="M1620 1583 c-8 -3 -19 -13 -24 -21 -5 -9 -9 -115 -8 -236 1 -212 2
-222 22 -238 20 -17 42 -15 68 5 9 7 12 67 12 238 0 224 0 228 -22 243 -24 17
-25 17 -48 9z"/>
</g>
</svg>
